<svg width="18" height="18" viewBox="0 0 18 18" fill="none" xmlns="http://www.w3.org/2000/svg">
<path fill-rule="evenodd" clip-rule="evenodd" d="M15.7317 4.14557C16.1032 4.15535 16.4454 4.37045 16.6018 4.71266L17.5111 6.66812H17.5209C17.5796 6.79522 17.6089 6.9321 17.6089 7.07876V17.0125C17.6089 17.5502 17.1689 17.9902 16.6312 17.9902H4.76154C4.22379 17.9902 3.78381 17.5502 3.78381 17.0125V7.06898C3.78381 6.9321 3.81315 6.78544 3.87181 6.65834L6.02281 2.04345V0.977729C6.02281 0.439978 6.46279 0 7.00054 0H14.3824C14.9202 0 15.3601 0.439978 15.3601 0.977729V1.23194C15.3601 1.39815 15.321 1.55459 15.2428 1.70125C15.233 1.71103 15.233 1.7208 15.233 1.7208L12.6714 6.85388C12.5443 7.09832 12.642 7.38186 12.8865 7.50896C13.1309 7.63607 13.4242 7.53829 13.5416 7.29386L14.8419 4.68332C15.0081 4.3509 15.3601 4.14557 15.7317 4.14557ZM8.79957 3.21673C8.5258 3.10918 7.85117 3.25584 7.49919 4.1358C7.1472 5.01575 7.54807 5.58284 7.81206 5.69039C8.08582 5.79794 8.76046 5.65128 9.11244 4.77132C9.46442 3.89136 9.06355 3.32428 8.79957 3.21673ZM5.18197 0.987495V1.96522C5.18197 2.11188 5.14286 2.26832 5.07442 2.4052L2.93319 6.59966V17.0223C2.93319 17.56 2.49321 18 1.95546 18H0.977729C0.439978 18 0 17.56 0 17.0223V7.07875C0 6.94187 0.0293319 6.79521 0.0879957 6.6681L2.24878 2.05322V0.987495C2.24878 0.449744 2.68876 0.00976562 3.22651 0.00976562H4.20424C4.74199 0.00976562 5.18197 0.449744 5.18197 0.987495Z" fill="#008DCC"/>
</svg>
