<svg width="18" height="18" viewBox="0 0 18 18" fill="none" xmlns="http://www.w3.org/2000/svg">
<path d="M9.91239 13.9675L13.0663 10.8135C13.2315 10.6483 13.363 10.4531 13.4606 10.2278C13.5582 10.0025 13.607 9.7622 13.607 9.50688C13.607 8.99625 13.4268 8.5607 13.0663 8.20025C12.7059 7.8398 12.2703 7.65957 11.7597 7.65957C11.4743 7.65957 11.1927 7.74218 10.9149 7.90738C10.637 8.07259 10.3029 8.35044 9.91239 8.74093C9.46183 8.3204 9.10889 8.03504 8.85357 7.88486C8.59825 7.73467 8.33542 7.65957 8.06508 7.65957C7.55444 7.65957 7.1189 7.8398 6.75845 8.20025C6.398 8.5607 6.21777 8.99625 6.21777 9.50688C6.21777 9.7622 6.26658 10.0025 6.36421 10.2278C6.46183 10.4531 6.59324 10.6483 6.75845 10.8135L9.91239 13.9675ZM11.0388 17.4819C10.6934 17.8273 10.2653 18 9.75469 18C9.24405 18 8.81602 17.8273 8.47059 17.4819L0.540676 9.55194C0.375469 9.38673 0.244055 9.19149 0.146433 8.96621C0.048811 8.74093 0 8.50063 0 8.24531V1.80225C0 1.30663 0.176471 0.882353 0.529412 0.529412C0.882353 0.176471 1.30663 0 1.80225 0H8.24531C8.50063 0 8.74093 0.048811 8.96621 0.146433C9.19149 0.244055 9.38673 0.375469 9.55194 0.540676L17.4819 8.49312C17.8273 8.83855 18 9.26283 18 9.76596C18 10.2691 17.8273 10.6934 17.4819 11.0388L11.0388 17.4819ZM4.05507 5.40676C4.43054 5.40676 4.74969 5.27534 5.01252 5.01252C5.27534 4.74969 5.40676 4.43054 5.40676 4.05507C5.40676 3.6796 5.27534 3.36045 5.01252 3.09762C4.74969 2.83479 4.43054 2.70338 4.05507 2.70338C3.6796 2.70338 3.36045 2.83479 3.09762 3.09762C2.83479 3.36045 2.70338 3.6796 2.70338 4.05507C2.70338 4.43054 2.83479 4.74969 3.09762 5.01252C3.36045 5.27534 3.6796 5.40676 4.05507 5.40676Z" fill="#F9AC31"/>
</svg>
